<?xml version="1.0" standalone="no"?>
<!DOCTYPE svg PUBLIC "-//W3C//DTD SVG 20010904//EN"
 "http://www.w3.org/TR/2001/REC-SVG-20010904/DTD/svg10.dtd">
<svg version="1.0" xmlns="http://www.w3.org/2000/svg"
 width="2484.000000pt" height="2484.000000pt" viewBox="0 0 2484.000000 2484.000000"
 preserveAspectRatio="xMidYMid meet">
<metadata>
Created by potrace 1.11, written by Peter Selinger 2001-2013
</metadata>
<g transform="translate(0.000000,2484.000000) scale(0.100000,-0.100000)"
fill="#000000" stroke="none">
<path d="M800 12420 l0 -12420 11620 0 11620 0 0 12420 0 12420 -11620 0
-11620 0 0 -12420z m10170 -6545 c-36 -570 -185 -1044 -452 -1438 -383 -565
-1041 -957 -1871 -1116 -127 -25 -147 -26 -147 -7 0 7 -9 25 -20 38 l-20 26
78 45 c96 55 256 174 343 255 270 249 463 607 544 1008 59 287 55 -261 55
7889 l0 7490 748 748 747 747 3 -7752 c2 -5674 0 -7801 -8 -7933z m4549 -850
c80 -581 288 -987 664 -1302 154 -129 374 -263 520 -318 46 -17 65 -37 28 -30
-10 2 -87 13 -171 25 -1080 150 -1850 634 -2244 1409 -194 381 -284 755 -306
1276 -6 133 -10 2285 -10 5415 l0 5195 748 748 747 747 6 -6537 c4 -5149 8
-6557 18 -6628z"/>
</g>
</svg>
