<svg xmlns="http://www.w3.org/2000/svg" viewBox="0 0 789.13 91.7"><title>Asset 11insta logo black</title><g id="Layer_2" data-name="Layer 2"><g id="Layer_1-2" data-name="Layer 1"><path d="M13.79.19V77.38c0,10-6.95,13.68-13.79,14.32,3.85-1.61,6.31-4.6,6.31-10v-74Z"/><path d="M34.73,49.27C34.73,33.13,49,26,55.15,24.69,51.09,28.11,43.5,33.88,43.5,49.27c0,16,8.55,22,11.65,24.69C49.7,72.67,34.73,65.83,34.73,49.27ZM70.22,69.89c1.28-2.35,4.59-5.23,4.59-20.62s-2.88-17.53-4.49-20.84c6.09,1.71,13.26,6.09,13.26,20.84C83.58,63.05,75.56,68.61,70.22,69.89Z"/><path d="M107.51,13,115,0V74.81l-7.49-7.48Zm34,23.4c0-4.06-2.14-6-5.45-5.34.85-1.18,3.1-3.53,6-3.53,4.39,0,6.95,3.1,6.95,7.16v38.8H141.5Z"/><path d="M171.42,62.84c0-9.3,7.59-13.89,13.47-14.64-3.1,2.14-6.73,7.59-6.73,13.79,0,7.48,2.56,11.22,6.84,13.14C177.09,75.13,171.42,71.39,171.42,62.84Zm32.07-27.79a7.78,7.78,0,0,0-4.07-7.16c5.35-.53,11.55,2.57,11.55,9.73V73.53h-7.48Z"/><path d="M239.4,39.12l7.48-13V74.81l-7.48-7.48Zm34-2.68c0-4.06-2.14-6-5.45-5.34.86-1.18,3.1-3.53,6-3.53,4.38,0,6.94,3.1,6.94,7.16v38.8h-7.48Z"/><path d="M309.29,39.12l7.48-13V74.81l-7.48-7.48Zm34-2.68c0-4.06-2.14-6-5.46-5.34.86-1.18,3.1-3.53,6-3.53,4.38,0,6.95,3.1,6.95,7.16v38.8h-7.48Z"/><path d="M389,73c-4.17-1.6-16.14-8.65-16.14-23.72a25.14,25.14,0,0,1,19.66-24.8c-6.84,3.85-10.9,10.48-10.9,24.8C381.64,61.88,384,68.83,389,73Zm19.23-31.31a15.26,15.26,0,0,0,.64-4c0-6.31-3.2-10.9-7.26-11,3.84-1.82,15.07,3.85,15.81,15Z"/><path d="M454.85,71.93A7.23,7.23,0,0,0,460,64.77c0-2.25-1.71-4.81-4.28-6.31l-14.42-8c-5.56-3.1-8-8-8-12.18,0-5.45,2.57-11.76,9.94-13.79-3.74,3.32-4.7,6.52-4.7,9.94s2.35,7.48,6.3,9.62l13.58,8c4.06,2.24,6.84,5.66,6.84,10.15C465.22,68,460.3,71.82,454.85,71.93Z"/><path d="M573.9,73c-4.17-1.6-16.14-8.65-16.14-23.72a25.14,25.14,0,0,1,19.67-24.8c-6.84,3.85-10.9,10.48-10.9,24.8C566.53,61.88,568.88,68.83,573.9,73Zm19.24-31.31a15.26,15.26,0,0,0,.64-4c0-6.31-3.21-10.9-7.27-11,3.85-1.82,15.07,3.85,15.82,15Z"/><path d="M639.74,71.93a7.23,7.23,0,0,0,5.13-7.16c0-2.25-1.71-4.81-4.28-6.31l-14.43-8c-5.55-3.1-8-8-8-12.18,0-5.45,2.56-11.76,9.94-13.79-3.74,3.32-4.71,6.52-4.71,9.94s2.36,7.48,6.31,9.62l13.57,8c4.06,2.24,6.84,5.66,6.84,10.15C650.1,68,645.19,71.82,639.74,71.93Z"/><path d="M685.69,71.93a7.23,7.23,0,0,0,5.13-7.16c0-2.25-1.71-4.81-4.27-6.31l-14.43-8c-5.56-3.1-8-8-8-12.18,0-5.45,2.57-11.76,9.94-13.79-3.74,3.32-4.7,6.52-4.7,9.94s2.35,7.48,6.3,9.62l13.58,8c4.06,2.24,6.84,5.66,6.84,10.15C696.06,68,691.14,71.82,685.69,71.93Z"/><path d="M726.41,73c-4.17-1.6-16.14-8.65-16.14-23.72a25.14,25.14,0,0,1,19.66-24.8C723.09,28.32,719,35,719,49.27,719,61.88,721.38,68.83,726.41,73Zm19.24-31.31a15.26,15.26,0,0,0,.64-4c0-6.31-3.21-10.9-7.27-11,3.85-1.82,15.07,3.85,15.82,15Z"/><polygon points="527.2 66.8 527.2 0.19 519.72 7.67 519.72 66.8 527.2 74.28 534.68 74.28 527.2 66.8"/><polygon points="781.65 26.08 774.17 39.12 774.17 67.33 781.65 74.81 781.65 33.56 789.13 33.56 781.65 26.08"/></g></g></svg>